# xmcd
#
# Track frame offsets: 
#        150
#        24080
#        46162
#        65810
#
# Disc length: 1195 seconds
#
# Revision: 2
# Processed by: cddbd v1.5.1PL0 Copyright (c) Steve Scherf et al.
# Submitted via: ExactAudioCopy v0.95a4
#
DISCID=2a04a904
DTITLE=Van Morrison - No Religion
DYEAR=1995
DGENRE=Blues
TTITLE0=No Religion
TTITLE1=Whenever God Shines His Light
TTITLE2=Have I Told You Lately That I Love You?
TTITLE3=Gloria
EXTD=
EXTT0=
EXTT1=
EXTT2=
EXTT3=
PLAYORDER=
